HIERARCHY
ROOT Hips
{
	OFFSET 62.837399 6.869677 77.889900
	CHANNELS 6 Xposition Yposition Zposition Xrotation Yrotation Zrotation
	JOINT spine
	{
		OFFSET 0.000000 -0.367607 6.392601
		CHANNELS 3 Xrotation Yrotation Zrotation
		JOINT spine1
		{
			OFFSET 0.000000 -0.000001 9.176109
			CHANNELS 3 Xrotation Yrotation Zrotation
			JOINT spine2
			{
				OFFSET 0.000000 -0.000001 8.792381
				CHANNELS 3 Xrotation Yrotation Zrotation
				JOINT Neck
				{
					OFFSET 0.000000 -1.076244 22.573700
					CHANNELS 3 Xrotation Yrotation Zrotation
					JOINT Head
					{
						OFFSET 0.000000 -0.000001 6.820114
						CHANNELS 3 Xrotation Yrotation Zrotation
						End Site
						{
							OFFSET 0.000000 5.444267 16.508499
						}
					}
				}
				JOINT RightShoulder
				{
					OFFSET -3.702209 0.515507 9.495087
					CHANNELS 3 Xrotation Yrotation Zrotation
					JOINT RightArm
					{
						OFFSET 0.000000 -0.000002 12.453697
						CHANNELS 3 Xrotation Yrotation Zrotation
						JOINT RightArmRoll
						{
							OFFSET 0.000000 -0.000001 6.286858
							CHANNELS 3 Xrotation Yrotation Zrotation
							JOINT RightForeArm
							{
								OFFSET 0.000000 -0.000003 18.311401
								CHANNELS 3 Xrotation Yrotation Zrotation
								JOINT RightForeArmRoll
								{
									OFFSET 0.000000 -0.000001 7.054825
									CHANNELS 3 Xrotation Yrotation Zrotation
									JOINT RightHand
									{
										OFFSET 0.000000 -0.000002 14.157501
										CHANNELS 3 Xrotation Yrotation Zrotation
										End Site
										{
											OFFSET 0.000000 0.000000 0.100006
										}
									}
								}
							}
						}
					}
				}
				JOINT LeftShoulder
				{
					OFFSET 3.702213 0.515507 9.495087
					CHANNELS 3 Xrotation Yrotation Zrotation
					JOINT LeftArm
					{
						OFFSET 0.000000 -0.000002 12.453697
						CHANNELS 3 Xrotation Yrotation Zrotation
						JOINT LeftArmRoll
						{
							OFFSET 0.000000 -0.000001 6.286858
							CHANNELS 3 Xrotation Yrotation Zrotation
							JOINT LeftForeArm
							{
								OFFSET 0.000000 -0.000003 18.311401
								CHANNELS 3 Xrotation Yrotation Zrotation
								JOINT LeftForeArmRoll
								{
									OFFSET 0.000000 -0.000001 7.054825
									CHANNELS 3 Xrotation Yrotation Zrotation
									JOINT LeftHand
									{
										OFFSET 0.000000 -0.000002 14.157501
										CHANNELS 3 Xrotation Yrotation Zrotation
										End Site
										{
											OFFSET 0.000000 0.000000 0.100006
										}
									}
								}
							}
						}
					}
				}
			}
		}
	}
	JOINT RightUpLeg
	{
		OFFSET -5.666149 0.871611 -1.039032
		CHANNELS 3 Xrotation Yrotation Zrotation
		JOINT RightUpLegRoll
		{
			OFFSET 0.000000 -0.000003 16.600502
			CHANNELS 3 Xrotation Yrotation Zrotation
			JOINT RightLeg
			{
				OFFSET 0.000000 0.000003 -20.557198
				CHANNELS 3 Xrotation Yrotation Zrotation
				JOINT RightLegRoll
				{
					OFFSET 0.000000 -0.000003 20.624397
					CHANNELS 3 Xrotation Yrotation Zrotation
					JOINT RightFoot
					{
						OFFSET 0.000000 -0.000003 17.166397
						CHANNELS 3 Xrotation Yrotation Zrotation
						JOINT RightToeBase
						{
							OFFSET 0.000000 -0.000002 14.350197
							CHANNELS 3 Xrotation Yrotation Zrotation
							End Site
							{
								OFFSET 0.006081 0.801060 6.949715
							}
						}
					}
				}
			}
		}
	}
	JOINT LeftUpLeg
	{
		OFFSET 5.666149 0.871611 -1.039032
		CHANNELS 3 Xrotation Yrotation Zrotation
		JOINT LeftUpLegRoll
		{
			OFFSET 0.000000 -0.000003 16.600601
			CHANNELS 3 Xrotation Yrotation Zrotation
			JOINT LeftLeg
			{
				OFFSET 0.000000 -0.000003 20.557098
				CHANNELS 3 Xrotation Yrotation Zrotation
				JOINT LeftLegRoll
				{
					OFFSET 0.000000 -0.000003 20.815102
					CHANNELS 3 Xrotation Yrotation Zrotation
					JOINT LeftFoot
					{
						OFFSET 0.000000 -0.000003 16.975708
						CHANNELS 3 Xrotation Yrotation Zrotation
						JOINT LeftToeBase
						{
							OFFSET 0.000000 -0.000002 14.350204
							CHANNELS 3 Xrotation Yrotation Zrotation
							End Site
							{
								OFFSET -0.027260 0.801060 6.949707
							}
						}
					}
				}
			}
		}
	}
}
MOTION
Frames: 6
Frame Time: 0.041667
56.134903 -5.220114 85.614990 -2.586737 1.250235 0.322458 -1.307128 0.429969 -0.121947 1.389425 0.856122 -0.225379 3.034577 0.853358 -0.235605 10.277427 -8.414947 -0.385588 10.275815 5.240373 -0.294435 -14.931126 -63.499217 -17.750584 -45.621750 -116.493753 -43.942449 0.000005 0.000008 -0.000006 6.179157 -16.664758 0.833628 -0.000004 0.000021 -3.001230 -5.000190 -7.998930 0.000162 -3.682689 50.081925 3.377837 -31.574387 121.665791 31.294964 0.000005 -0.000000 0.000003 4.652721 10.493879 0.105525 0.000001 -0.000001 3.000001 -5.000218 7.998761 -0.000171 1.533506 -179.967015 -0.826701 -179.999991 0.000005 -0.982996 174.039531 -3.774540 -0.603793 -0.000002 0.000000 0.054049 68.392938 6.831089 2.326726 26.075203 -7.355614 -0.370284 0.921288 177.460322 1.823873 -0.000005 -0.000004 -1.078810 -8.338808 1.018925 0.619689 -0.000004 0.000000 -0.158269 70.878205 -6.816055 -2.193586 25.553397 7.353470 -0.160067 
56.128902 -5.206993 85.613503 -2.579291 1.247825 0.324289 -1.306778 0.430110 -0.120963 1.390125 0.856775 -0.224383 3.035268 0.854023 -0.234574 10.271127 -8.425127 -0.388256 10.276190 5.250998 -0.297352 -14.924192 -63.503219 -17.742651 -45.627764 -116.489778 -43.951670 0.000001 0.000007 -0.000005 6.183669 -16.666713 0.834641 -0.000002 0.000021 -3.001230 -5.000193 -7.998928 0.000162 -3.668381 50.079879 3.359843 -31.560371 121.660859 31.283236 0.000004 -0.000001 0.000003 4.665053 10.496491 0.104790 0.000000 -0.000000 3.000001 -5.000219 7.998762 -0.000171 1.527128 -179.964010 -0.825288 -179.999991 0.000005 -0.982996 174.044353 -3.776570 -0.603683 -0.000002 0.000000 0.054053 68.393792 6.833202 2.321179 26.072780 -7.355613 -0.369199 0.909752 177.464311 1.827078 -0.000005 -0.000004 -1.078610 -8.345230 1.019877 0.619688 -0.000003 0.000000 -0.158269 70.881299 -6.816066 -2.193798 25.553496 7.353472 -0.159304 
56.134109 -5.208524 85.611801 -2.572125 1.245235 0.326112 -1.306436 0.430266 -0.119885 1.390796 0.857467 -0.223256 3.035938 0.854730 -0.233392 10.264936 -8.435618 -0.391084 10.277085 5.262350 -0.300557 -14.917929 -63.507154 -17.735505 -45.633112 -116.485543 -43.960327 0.000002 0.000008 -0.000006 6.188246 -16.668771 0.835693 -0.000003 0.000021 -3.001229 -5.000190 -7.998932 0.000163 -3.652485 50.078076 3.339907 -31.545195 121.655600 31.270057 0.000004 -0.000001 0.000003 4.677910 10.499292 0.104030 0.000001 -0.000001 3.000000 -5.000218 7.998762 -0.000169 1.521178 -179.961018 -0.823693 -179.999991 0.000005 -0.982996 174.049230 -3.777595 -0.603466 -0.000002 0.000000 0.054056 68.394646 6.835318 2.315632 26.070359 -7.355611 -0.368153 0.898601 177.468313 1.830494 -0.000005 -0.000004 -1.078420 -8.351643 1.020672 0.619689 -0.000003 0.000000 -0.158269 70.884393 -6.816073 -2.193909 25.553698 7.353469 -0.158574 
56.130009 -5.210716 85.611794 -2.565176 1.242534 0.327931 -1.306107 0.430430 -0.118743 1.391436 0.858189 -0.222036 3.036589 0.855465 -0.232103 10.258954 -8.446323 -0.394015 10.278289 5.274221 -0.303960 -14.912197 -63.511136 -17.728965 -45.638146 -116.481172 -43.968731 0.000003 0.000008 -0.000006 6.192885 -16.671022 0.836790 -0.000002 0.000021 -3.001230 -5.000192 -7.998929 0.000162 -3.635477 50.076406 3.318607 -31.530161 121.649316 31.256926 0.000006 -0.000001 0.000003 4.691147 10.502089 0.103261 -0.000001 -0.000001 2.999999 -5.000218 7.998762 -0.000172 1.515547 -179.957016 -0.821941 -179.999991 0.000005 -0.982996 174.054216 -3.779614 -0.603343 -0.000002 0.000000 0.054059 68.395581 6.837404 2.310075 26.067931 -7.355607 -0.367137 0.887717 177.472302 1.834057 -0.000005 -0.000004 -1.078240 -8.358057 1.021358 0.619690 -0.000003 0.000000 -0.158269 70.887371 -6.816083 -2.194127 25.553896 7.353464 -0.157884 
56.131504 -5.209815 85.613091 -2.558319 1.239754 0.329746 -1.305778 0.430600 -0.117563 1.392077 0.858926 -0.220764 3.037219 0.856218 -0.230752 10.252875 -8.457145 -0.397031 10.279793 5.286389 -0.307489 -14.906773 -63.515179 -17.722789 -45.644273 -116.475954 -43.978451 0.000002 0.000007 -0.000006 6.197545 -16.673366 0.837910 -0.000005 0.000021 -3.001230 -5.000192 -7.998930 0.000162 -3.617834 50.074757 3.296521 -31.513612 121.643702 31.242040 0.000001 -0.000000 0.000003 4.704584 10.504982 0.102481 -0.000001 -0.000001 3.000000 -5.000218 7.998761 -0.000171 1.510097 -179.954011 -0.820142 -179.999991 0.000005 -0.982996 174.059202 -3.781645 -0.603222 -0.000002 0.000000 0.054061 68.396449 6.839556 2.304432 26.065605 -7.355607 -0.366135 0.876991 177.477288 1.837706 -0.000005 -0.000004 -1.078070 -8.364470 1.021984 0.619693 -0.000003 0.000000 -0.158269 70.890369 -6.816128 -2.194251 25.554101 7.353470 -0.157199 
56.145306 -5.209686 85.611603 -2.551504 1.236953 0.331560 -1.305458 0.430772 -0.116372 1.392707 0.859668 -0.219477 3.037860 0.856976 -0.229385 10.246996 -8.468005 -0.400043 10.281306 5.298639 -0.311047 -14.901390 -63.519120 -17.716664 -45.648975 -116.471459 -43.986572 0.000002 0.000006 -0.000006 6.202229 -16.675717 0.839036 -0.000002 0.000021 -3.001230 -5.000189 -7.998929 0.000162 -3.600004 50.073107 3.274212 -31.497899 121.637227 31.228086 0.000003 -0.000001 0.000003 4.718087 10.507870 0.101698 -0.000002 -0.000001 3.000000 -5.000221 7.998762 -0.000171 1.504696 -179.950008 -0.818296 -179.999991 0.000005 -0.982996 174.064229 -3.782671 -0.603991 -0.000002 0.000000 0.054063 68.397303 6.841669 2.298784 26.063184 -7.355614 -0.365135 0.866309 177.481291 1.841366 -0.000005 -0.000004 -1.077900 -8.370872 1.022581 0.619693 -0.000003 0.000000 -0.158269 70.893354 -6.816138 -2.194470 25.554308 7.353467 -0.156519 
